<?xml version="1.0" encoding="UTF-8"?>
<svg xmlns="http://www.w3.org/2000/svg" xmlns:xlink="http://www.w3.org/1999/xlink" width="512" height="512" viewBox="0 0 54 60" version="1.1"><!-- Generator: Sketch 51.3 (57544) - http://www.bohemiancoding.com/sketch --><title>026 - Draught Keg</title><desc>Created with Sketch.</desc><defs/><g id="Page-1" stroke="none" stroke-width="1" fill="none" fill-rule="evenodd"><g id="026---Draught-Keg" transform="translate(-1.000000, 0.000000)" fill="#000000" fill-rule="nonzero"><path d="M55,53.98 L55,44 C55,43.973 54.987,43.95 54.985,43.924 C54.9783807,43.8585403 54.9653174,43.7938937 54.946,43.731 C54.9287489,43.6649895 54.9046167,43.6009721 54.874,43.54 C54.862,43.518 54.861,43.492 54.848,43.47 L49.848,35.47 C49.5552891,35.000558 48.937442,34.8572891 48.468,35.15 C47.998558,35.4427109 47.8552891,36.060558 48.148,36.53 L52.2,43 L49,43 C47.8954305,43 47,43.8954305 47,45 L47,46 L43,46 L43,43.816 C44.1981296,43.3985886 45.0009455,42.2687579 45.0009455,41 C45.0009455,39.7312421 44.1981296,38.6014114 43,38.184 L43,25.816 C44.1981296,25.3985886 45.0009455,24.2687579 45.0009455,23 C45.0009455,21.7312421 44.1981296,20.6014114 43,20.184 L43,9.816 C44.3765475,9.33114767 45.2026937,7.92415585 44.9553873,6.48582199 C44.7080809,5.04748812 43.4594373,3.9972346 42,4 L31,4 L31,3 C31,1.34314575 29.6568542,1.01453063e-16 28,0 L18,0 C16.3431458,-1.01453063e-16 15,1.34314575 15,3 L15,4 L4,4 C2.54056274,3.9972346 1.29191905,5.04748812 1.04461268,6.48582199 C0.797306304,7.92415585 1.62345252,9.33114767 3,9.816 L3,20.184 C1.80187045,20.6014114 0.999054535,21.7312421 0.999054535,23 C0.999054535,24.2687579 1.80187045,25.3985886 3,25.816 L3,38.184 C1.80187045,38.6014114 0.999054535,39.7312421 0.999054535,41 C0.999054535,42.2687579 1.80187045,43.3985886 3,43.816 L3,54.184 C1.62345252,54.6688523 0.797306304,56.0758441 1.04461268,57.514178 C1.29191905,58.9525119 2.54056274,60.0027654 4,60 L42,60 C43.4594373,60.0027654 44.7080809,58.9525119 44.9553873,57.514178 C45.2026937,56.0758441 44.3765475,54.6688523 43,54.184 L43,52 L47,52 L47,54 C47.0060601,54.0593159 47.0177802,54.1179161 47.035,54.175 C47.0398978,54.2427516 47.0519652,54.309793 47.071,54.375 L48.7,58.441 C49.0760581,59.3816294 49.986983,59.9984735 51,59.9984735 C52.013017,59.9984735 52.9239419,59.3816294 53.3,58.441 L54.929,54.37 C54.9477853,54.3047768 54.9595191,54.2377265 54.964,54.17 C54.9812737,54.1145796 54.9933262,54.0576651 55,54 L55,53.98 Z M49,45 L53,45 L53,53 L49,53 L49,45 Z M17,3 C17,2.44771525 17.4477153,2 18,2 L28,2 C28.5522847,2 29,2.44771525 29,3 L29,4 L17,4 L17,3 Z M4,6 L42,6 C42.5522847,6 43,6.44771525 43,7 C43,7.55228475 42.5522847,8 42,8 L4,8 C3.44771525,8 3,7.55228475 3,7 C3,6.44771525 3.44771525,6 4,6 Z M4,22 L11,22 C11.5522847,22 12,21.5522847 12,21 C12,20.4477153 11.5522847,20 11,20 L5,20 L5,10 L41,10 L41,20 L17,20 C16.4477153,20 16,20.4477153 16,21 C16,21.5522847 16.4477153,22 17,22 L42,22 C42.5522847,22 43,22.4477153 43,23 C43,23.5522847 42.5522847,24 42,24 L4,24 C3.44771525,24 3,23.5522847 3,23 C3,22.4477153 3.44771525,22 4,22 Z M4,40 L11,40 C11.5522847,40 12,39.5522847 12,39 C12,38.4477153 11.5522847,38 11,38 L5,38 L5,26 L41,26 L41,38 L17,38 C16.4477153,38 16,38.4477153 16,39 C16,39.5522847 16.4477153,40 17,40 L42,40 C42.5522847,40 43,40.4477153 43,41 C43,41.5522847 42.5522847,42 42,42 L4,42 C3.44771525,42 3,41.5522847 3,41 C3,40.4477153 3.44771525,40 4,40 Z M42,58 L4,58 C3.44771525,58 3,57.5522847 3,57 C3,56.4477153 3.44771525,56 4,56 L11,56 C11.5522847,56 12,55.5522847 12,55 C12,54.4477153 11.5522847,54 11,54 L5,54 L5,44 L41,44 L41,54 L17,54 C16.4477153,54 16,54.4477153 16,55 C16,55.5522847 16.4477153,56 17,56 L42,56 C42.5522847,56 43,56.4477153 43,57 C43,57.5522847 42.5522847,58 42,58 Z M43,50 L43,48 L47,48 L47,50 L43,50 Z M50.558,57.7 L49.477,55 L52.523,55 L51.442,57.7 C51.3583813,57.8675276 51.1872367,57.9733827 51,57.9733827 C50.8127633,57.9733827 50.6416187,57.8675276 50.558,57.7 Z" id="Shape"/><path d="M7.29,11.29 C7.10701196,11.481469 7.00338652,11.7351726 7,12 C6.99654528,12.1311833 7.02394763,12.2613445 7.08,12.38 C7.12832305,12.5023813 7.19960316,12.6143929 7.29,12.71 C7.6843361,13.0967403 8.3156639,13.0967403 8.71,12.71 C8.80039684,12.6143929 8.87167695,12.5023813 8.92,12.38 C8.97124097,12.2597777 8.99842001,12.1306773 9,12 C9.00236262,11.5937349 8.75869622,11.22642 8.38348151,11.070629 C8.00826679,10.9148381 7.57609046,11.0015401 7.29,11.29 Z" id="Shape"/><path d="M8,14 C7.44771525,14 7,14.4477153 7,15 L7,17 C7,17.5522847 7.44771525,18 8,18 C8.55228475,18 9,17.5522847 9,17 L9,15 C9,14.4477153 8.55228475,14 8,14 Z" id="Shape"/><path d="M7.29,28.29 C7.10701196,28.481469 7.00338652,28.7351726 7,29 C6.99654528,29.1311833 7.02394763,29.2613445 7.08,29.38 C7.12832305,29.5023813 7.19960316,29.6143929 7.29,29.71 C7.6843361,30.0967403 8.3156639,30.0967403 8.71,29.71 C8.80039684,29.6143929 8.87167695,29.5023813 8.92,29.38 C8.97124097,29.2597777 8.99842001,29.1306773 9,29 C9.00236262,28.5937349 8.75869622,28.22642 8.38348151,28.070629 C8.00826679,27.9148381 7.57609046,28.0015401 7.29,28.29 Z" id="Shape"/><path d="M8,31 C7.44771525,31 7,31.4477153 7,32 L7,34 C7,34.5522847 7.44771525,35 8,35 C8.55228475,35 9,34.5522847 9,34 L9,32 C9,31.4477153 8.55228475,31 8,31 Z" id="Shape"/><path d="M7.29,45.29 C7.10701196,45.481469 7.00338652,45.7351726 7,46 C6.99654528,46.1311833 7.02394763,46.2613445 7.08,46.38 C7.12832305,46.5023813 7.19960316,46.6143929 7.29,46.71 C7.6843361,47.0967403 8.3156639,47.0967403 8.71,46.71 C8.80039684,46.6143929 8.87167695,46.5023813 8.92,46.38 C8.97124097,46.2597777 8.99842001,46.1306773 9,46 C9.00236262,45.5937349 8.75869622,45.22642 8.38348151,45.070629 C8.00826679,44.9148381 7.57609046,45.0015401 7.29,45.29 Z" id="Shape"/><path d="M8,48 C7.44771525,48 7,48.4477153 7,49 L7,51 C7,51.5522847 7.44771525,52 8,52 C8.55228475,52 9,51.5522847 9,51 L9,49 C9,48.4477153 8.55228475,48 8,48 Z" id="Shape"/></g></g></svg>
